<?xml version="1.0" encoding="UTF-8"?>
<svg xmlns="http://www.w3.org/2000/svg" height="512" viewBox="-21 0 503 503.38228" width="512" class="">
  <g>
    <path d="m390.179688 17.222656v-9.339844h62.421874v115.039063h-62.421874zm46.339843 68.488282c0-8.28125-6.714843-15-15-15-8.28125 0-15 6.71875-15 15 0 8.285156 6.71875 15 15 15 8.285157 0 15-6.714844 15-15zm0 0" fill="#00acea" data-original="#00ACEA" class="" data-old_color="#00acea" style="fill:#FFFFFF"></path>
    <path d="m436.519531 85.710938c0 8.285156-6.714843 15-15 15-8.28125 0-15-6.714844-15-15 0-8.28125 6.71875-15 15-15 8.285157 0 15 6.71875 15 15zm0 0" fill="#00efd1" data-original="#00EFD1" class="" data-old_color="#00efd1" style="fill:#ECEDED"></path>
    <path d="m196.101562 76.632812-57.210937 28.980469c-12.601563 6.800781-28.324219 2.5-35.710937-9.769531l115.722656-79.460938c15.601562-7.71875 33.269531-10.210937 50.398437-7.109374l81.890625 20.570312c7.53125 1.890625 15.507813.796875 22.25-3.0625l16.738282-9.558594v82.941406h-.667969c-23.8125 17.917969-55.640625 21.027344-82.46875 8.058594l-4.933594-2.390625c-7.710937-3.730469-16.167969-5.667969-24.738281-5.667969h-47.808594c-15 0-28.390625-9.414062-33.460938-23.53125zm0 0" fill="#f7caa5" data-original="#F7CAA5" class="active-path" data-old_color="#f7caa5" style="fill:#FFFFFF"></path>
    <path d="m244.28125 426.132812 57.210938-28.980468c12.601562-6.800782 28.324218-2.5 35.707031 9.769531l-115.71875 79.460937c-15.601563 7.71875-33.273438 10.210938-50.398438 7.109376l-81.890625-20.570313c-7.535156-1.894531-15.507812-.796875-22.25 3.058594l-16.742187 9.5625v-82.941407h.671875c23.8125-17.917968 55.640625-21.03125 82.46875-8.058593l4.929687 2.390625c7.714844 3.730468 16.171875 5.667968 24.742188 5.667968h47.808593c15 0 28.386719 9.414063 33.460938 23.53125zm0 0" fill="#f7caa5" data-original="#F7CAA5" class="active-path" data-old_color="#f7caa5" style="fill:#FFFFFF"></path>
    <path d="m347.730469 251.382812c0 70.4375-57.101563 127.539063-127.539063 127.539063s-127.539062-57.101563-127.539062-127.539063 57.101562-127.539062 127.539062-127.539062 127.539063 57.101562 127.539063 127.539062zm0 0" fill="#00efd1" data-original="#00EFD1" class="" data-old_color="#00efd1" style="fill:#ECEDED"></path>
    <path d="m50.199219 485.542969v9.339843h-42.417969v-115.039062h42.417969zm0 0" fill="#00acea" data-original="#00ACEA" class="" data-old_color="#00acea" style="fill:#FFFFFF"></path>
    <g fill="#083863">
      <path d="m297.792969 390.058594-49.886719 25.160156c-7.929688-12.890625-21.953125-20.769531-37.085938-20.835938h-47.808593c-7.351563.027344-14.613281-1.597656-21.25-4.757812l-4.945313-2.339844c-24.917968-12.101562-54.105468-11.632812-78.625 1.253906v-8.699218c0-4.417969-3.574218-8.460938-7.992187-8.460938h-42.417969c-4.417969 0-7.589844 4.042969-7.589844 8.460938v115.042968c0 4.417969 3.171875 8.5 7.589844 8.5h42.417969c4.417969 0 7.992187-4.082031 7.992187-8.5v-4.695312l12.71875-7.261719c4.945313-2.839843 10.800782-3.644531 16.328125-2.246093l81.894531 20.570312c.171876.046875.347657.082031.523438.113281 5.191406.9375 10.457031 1.40625 15.730469 1.402344 13.746093.003906 27.308593-3.148437 39.640625-9.21875.34375-.167969.667968-.359375.980468-.574219l115.722657-79.460937c3.488281-2.394531 4.507812-7.09375 2.324219-10.71875-9.546876-15.914063-29.914063-21.523438-46.261719-12.734375zm-255.601563 97.324218h-26v-100h26zm175.242188-7.925781c-13.871094 6.691407-29.496094 8.863281-44.671875 6.210938l-81.625-20.5c-9.535157-2.414063-19.636719-1.027344-28.167969 3.871093l-4.777344 2.722657v-64.574219c21.152344-14.613281 48.539063-16.695312 71.65625-5.445312l4.9375 2.28125c8.8125 4.210937 18.457032 6.382812 28.226563 6.359374h47.808593c11.664063.109376 22.015626 7.484376 25.933594 18.46875.234375.480469.378906 1 .429688 1.53125h-69.398438c-4.417968 0-8 3.582032-8 8 0 4.417969 3.582032 8 8 8h78.578125c4.445313-.054687 8.011719-3.679687 8-8.121093 0-2.632813-.234375-5.261719-.699219-7.851563l51.445313-26.09375c.0625-.027344.125-.074218.183594-.109375 6.332031-3.429687 14.066406-2.945312 19.914062 1.257813zm0 0" data-original="#083863" class="" style="fill:#000000" data-old_color="#083863"></path>
      <path d="m452.601562.382812h-62.421874c-4.417969 0-7.988282 3.082032-7.988282 7.5v4.691407l-12.71875 7.265625c-4.945312 2.839844-10.804687 3.644531-16.332031 2.242187l-81.890625-20.570312c-.171875-.042969-.347656-.078125-.523438-.113281-18.820312-3.363282-38.21875-.625-55.375 7.8125-.339843.167968-.667968.363281-.976562.578124l-115.722656 79.457032c-3.488282 2.394531-4.507813 7.09375-2.328125 10.71875 9.546875 15.921875 29.917969 21.53125 46.269531 12.742187l49.882812-25.160156c7.929688 12.886719 21.953126 20.765625 37.085938 20.835937h47.808594c7.351562-.027343 14.613281 1.597657 21.25 4.757813l4.9375 2.339844c11.902344 5.761719 24.957031 8.753906 38.179687 8.753906 14.089844-.058594 27.960938-3.488281 40.453125-10v8.6875c0 4.417969 3.570313 8.460937 7.988282 8.460937h62.421874c4.417969 0 7.589844-4.042968 7.589844-8.460937v-115.039063c.074219-2.027343-.707031-3.992187-2.148437-5.417968-1.441407-1.425782-3.417969-2.179688-5.441407-2.082032zm-142.066406 100.640626-4.9375-2.28125c-8.8125-4.210938-18.460937-6.386719-28.226562-6.359376h-47.808594c-11.664062-.113281-22.015625-7.488281-25.933594-18.46875-.234375-.480468-.378906-1-.433594-1.53125h69.402344c4.417969 0 8-3.582031 8-8 0-4.417968-3.582031-8-8-8h-78.578125c-4.441406.054688-8.007812 3.675782-8 8.121094.003907 2.632813.238281 5.257813.703125 7.851563l-51.445312 26.089843c-.0625.03125-.125.078126-.183594.113282-6.332031 3.429687-14.066406 2.941406-19.914062-1.257813l107.769531-74c13.871093-6.695312 29.496093-8.863281 44.671875-6.207031l81.625 20.503906c9.535156 2.417969 19.636718 1.027344 28.167968-3.871094l4.777344-2.722656v64.570313c-21.152344 14.617187-48.539062 16.699219-71.65625 5.449219zm133.65625 14.359374h-46v-99h46zm0 0" data-original="#083863" class="" style="fill:#000000" data-old_color="#083863"></path>
      <path d="m421.519531 108.710938c12.703125 0 23-10.296876 23-23 0-12.703126-10.296875-23-23-23-12.699219 0-23 10.296874-23 23 .015625 12.699218 10.304688 22.988281 23 23zm0-30c3.867188 0 7 3.136718 7 7 0 3.867187-3.132812 7-7 7-3.863281 0-7-3.132813-7-7 .007813-3.863282 3.136719-6.996094 7-7zm0 0" data-original="#083863" class="" style="fill:#000000" data-old_color="#083863"></path>
      <path d="m220.191406 115.84375c-74.738281 0-135.539062 60.796875-135.539062 135.539062 0 74.738282 60.800781 135.539063 135.539062 135.539063 74.738282 0 135.539063-60.800781 135.539063-135.539063 0-74.738281-60.800781-135.539062-135.539063-135.539062zm0 255.078125c-66.019531 0-119.539062-53.519531-119.539062-119.539063 0-66.019531 53.519531-119.539062 119.539062-119.539062 66.019532 0 119.539063 53.519531 119.539063 119.539062-.074219 65.988282-53.550781 119.464844-119.539063 119.539063zm0 0" data-original="#083863" class="" style="fill:#000000" data-old_color="#083863"></path>
      <path d="m264.742188 191.382812c4.417968 0 8-3.582031 8-8 0-4.417968-3.582032-8-8-8h-89.101563c-4.417969 0-8 3.582032-8 8 0 4.417969 3.582031 8 8 8h25.5c13.894531 0 25.621094 10 29.136719 22h-54.636719c-4.417969 0-8 3.582032-8 8 0 4.417969 3.582031 8 8 8h54.652344c-1.375 5.175782-4.054688 9.910157-7.777344 13.757813-5.617187 5.792969-13.304687 9.121094-21.375 9.242187h-25.5c-3.246094-.085937-6.207031 1.851563-7.429687 4.863282-1.222657 3.007812-.453126 6.460937 1.9375 8.667968l63.71875 60.160157c3.222656 3.015625 8.28125 2.859375 11.308593-.355469 1.457031-1.507812 2.242188-3.535156 2.183594-5.628906-.0625-2.09375-.964844-4.074219-2.503906-5.496094l-49.101563-46.210938h5.386719c12.316406-.113281 24.078125-5.125 32.6875-13.929687 6.871094-6.75 11.375-15.546875 12.835937-25.070313h18.078126c4.417968 0 8-3.582031 8-8 0-4.417968-3.582032-8-8-8h-18.089844c-1.492188-8.148437-5.148438-15.75-10.585938-22zm0 0" data-original="#083863" class="" style="fill:#000000" data-old_color="#083863"></path>
    </g>
  </g>
</svg>
